<svg width="107" height="90" fill="none" xmlns="http://www.w3.org/2000/svg"><g clip-path="url(#a)"><path d="M.535 78.34c0-8.335 5.494-18.507 14.932-18.507 6.057 0 8.733 4.521 8.733 9.89 0 9.04-5.634 19.777-14.931 19.777-5.917 0-8.734-5.227-8.734-11.16Zm6.198-.848c0 3.956 1.409 7.064 4.649 7.064 3.803 0 8.874-4.945 8.874-14.975 0-4.52-1.972-6.922-4.508-6.922-5.352.141-9.015 8.476-9.015 14.833ZM26.032 71.7c1.55-.989 3.099-1.837 4.93-1.837 1.55 0 2.536.707 2.113 2.12l-.423 1.695c1.831-2.26 4.649-3.814 7.184-3.814 2.395 0 4.085 1.553 2.959 5.65l-2.113 8.759c-.282 1.13.281 1.554 1.127 1.554 1.69 0 3.521-.989 4.648-1.837.423.142.704.566.704.848 0 .283-.14.565-.422.848-2.113 1.977-5.071 3.814-8.03 3.814-2.253 0-4.507-.989-3.38-5.368l1.83-7.629c.424-1.554-.28-2.26-1.267-2.26-1.127 0-2.958.989-3.944 1.978l-2.677 10.877c-.14 1.696-1.83 2.402-3.38 2.402-.845 0-1.55-.141-2.113-.565l3.662-14.692c.141-.565 0-.989-.422-.989-.282 0-.423.141-.846.424-.704-.141-.986-1.272-.14-1.978Z" fill="#076197"/><path d="M52.092 83.284c.422 2.12 2.113 2.826 4.085 2.826 3.24 0 7.184-1.978 9.156-4.097 1.127-.142 1.55.565 1.127 1.271-3.1 3.956-8.17 6.216-12.537 6.216-4.085 0-7.466-2.119-7.466-6.78 0-4.945 3.803-12.856 11.128-12.856 4.085 0 5.071 1.977 5.071 3.672 0 3.108-1.972 5.651-10.564 9.748Zm-.141-1.554c4.226-2.26 7.184-4.944 7.184-7.487 0-.848-.564-1.554-1.268-1.554-4.367 0-5.775 6.357-5.916 9.041Z" fill="#076197"/><path d="m71.39 78.481.282-.141c2.113-.565 5.071-4.097 6.198-8.194a5.639 5.639 0 0 1 2.113-.424c1.55 0 2.254.848 2.254 1.837 0 2.26-3.381 5.65-6.198 7.205.563 2.119 1.83 6.64 5.07 6.64.846 0 1.832-.707 2.959-1.555.422.142.704.565.704.848 0 .282-.14.565-.422.847-1.409 1.837-4.508 3.956-6.34 3.956-4.366 0-5.634-6.075-6.197-9.041l-.846.141-1.549 6.499c-.423 1.695-2.113 2.401-3.663 2.401-.845 0-1.549-.141-2.112-.424l3.662-14.692c.14-.706 0-.989-.423-.989-.281 0-.422.142-.845.424-.563-.282-.845-1.554 0-2.119 1.55-.989 3.1-1.836 4.93-1.836 1.55 0 2.536.565 2.114 2.119l-1.69 6.498Z" fill="#076197"/><path d="M101.676 83.002c-.423 1.977.141 2.825.986 2.825s1.831-.424 2.536-1.837c.845 0 1.267.424 1.267.99 0 2.683-3.662 4.52-6.057 4.52-2.113 0-4.226-.848-4.085-3.814-1.831 2.26-4.226 3.814-6.761 3.814-4.649 0-5.494-3.956-5.494-6.357 0-6.64 4.93-13.28 11.128-13.28 1.972 0 3.38.424 4.508 1.272.704-.706 1.972-1.13 2.958-1.13.845 0 1.549.141 2.113.424l-3.099 12.573Zm-5.353.14 2.536-10.17c-.705-.283-1.409-.283-2.113-.283-5.353 0-7.184 6.075-7.184 10.171 0 1.837.986 2.684 2.394 2.684 1.268 0 3.1-.988 4.367-2.401Z" fill="#076197"/><path fill-rule="evenodd" clip-rule="evenodd" d="M105.056 48.108c-3.24 1.413-6.198 2.119-9.156 2.402-10.565-.707-15.636-10.03-26.905-13.986 3.803-.706 6.62-3.25 6.339-8.9C85.617 22.538 89.279 10.106 88.716.359l-.14.282c-.142.142-.282.565-.282.565C76.742 24.94 36.032 8.27 31.524 32.851c-2.958-3.956-7.325-4.945-9.86-2.26-1.268-.848-3.522-1.13-5.776.565 1.409.14 2.958.989 4.226 2.119-1.268-.848-2.817-.707-4.508 0 1.832-.142 3.663 0 5.776 1.13v-.142c-.845-1.553-2.113-3.107-3.944-3.249 2.113-.141 3.944.424 5.352 1.695-.14-1.553.987-2.26 2.254-2.26 6.48-.141 9.157 8.194 9.86 10.878-.28-3.108-1.126-5.65-2.394-7.629 4.79-21.614 46.485-5.51 55.078-28.395.282 6.075-3.803 15.822-11.973 20.484-.141.142-1.268.565-1.268.565s.14.707.14 1.272v.706c-.281 5.368-6.197 6.64-9.86 6.075-4.93-.707-11.691-3.39-20.989.424-2.817 1.13-5.775 3.108-8.733 6.357 23.947-19.072 41.696 22.744 68.601 7.77-13.24 9.606-45.076 11.584-59.726-5.227 7.466 14.55 46.767 24.58 61.276 4.379ZM58.289 36.24c12.396-.282 19.44 10.03 28.032 13.562-10.424-2.26-19.298-9.747-28.032-13.562Z" fill="#076197"/><path fill-rule="evenodd" clip-rule="evenodd" d="M39.413 59.833c-19.861-10.03-14.086-24.44-24.087-26.417 9.72 4.38 1.55 19.919 24.087 26.417ZM24.904 33.98c-.563.707-.281 1.837.564 2.12.845.282 1.127.141 1.55.424l.845.565s-.141-.424-.282-.989c-.282-.565 0-1.272-.564-1.978-.704-.706-1.55-.847-2.113-.141Zm.705 1.414c-.282-.142-.282-.566-.141-.848.282-.283.563-.283.704 0 .282 0 1.127 1.695-.563.848Z" fill="#076197"/><path fill-rule="evenodd" clip-rule="evenodd" d="M17.72 32.71c.564-3.39 2.395-6.216 5.635-8.618l-.704-.848c-3.1 2.826-5.494 5.227-6.057 9.465.422.142.845.142 1.127 0Zm-.563 8.052c.845 3.25 1.972 3.673 2.536 3.25-1.55-3.391-2.254-6.5-2.113-9.325-.282-.282-.564-.565-.986-.706-.141 1.837 0 4.097.563 6.78Z" fill="#91BF29"/><path fill-rule="evenodd" clip-rule="evenodd" d="M18.425 30.45c-3.522 2.966 1.55-3.391-.282-9.325l1.127-.282c1.127 2.825.563 5.792-.845 9.606Zm3.662-6.358c.705-8.052 8.734-4.803 11.27-6.78-.705 4.52-5.776 7.91-10.847 7.486l-.423-.706Z" fill="#91BF29"/><path fill-rule="evenodd" clip-rule="evenodd" d="M18.848 23.386c-2.536-5.934-7.889-2.402-10.284-3.815 1.268 3.956 6.198 5.792 10.002 4.945l.282-1.13Z" fill="#91BF29"/><path fill-rule="evenodd" clip-rule="evenodd" d="M18.143 21.267c-4.367-5.934.986-7.77.845-10.454 4.226 3.39 2.677 8.617.282 11.019l-1.127-.565Z" fill="#91BF29"/><path fill-rule="evenodd" clip-rule="evenodd" d="m9.832 15.05.14-.564c4.509.565 7.467 2.966 8.734 5.792.141.424-.422.706-.281 1.271-2.254-3.814-5.212-5.792-8.593-6.498Z" fill="#91BF29"/><path fill-rule="evenodd" clip-rule="evenodd" d="M10.537 14.486c-2.113-5.792-6.058-1.978-8.593-3.39 1.268 3.53 5.071 4.661 8.31 3.955l.283-.565Zm4.648 2.119c2.254-6.357-3.38-6.923-4.648-9.465-.986 3.955.845 6.78 3.24 8.476l1.408.989Z" fill="#91BF29"/></g><defs><clipPath id="a"><path fill="#fff" transform="translate(.535 .5)" d="M0 0h105.93v89H0z"/></clipPath></defs></svg>