<svg viewBox="0 0 435 432" fill="none" xmlns="http://www.w3.org/2000/svg"><path fill-rule="evenodd" clip-rule="evenodd" d="M393.272 155.01c6.432-.349 12.87-.609 19.219-.781l-.014-.687v-.004c-.079-3.863-.158-7.726-.158-11.668a43825.91 43825.91 0 0 1-62.633-36.588l-.002-.001v-.001l-.002-.001-.002-.001c-44.051-25.766-88.113-51.538-132.377-76.992-50.309 29.65-100.722 58.978-151.158 88.321l-.004.002-.03.017-.11.064c-14.221 8.274-28.444 16.548-42.666 24.831-.178 4.265-.35 8.531-.438 12.797 7.307.26 14.615 0 21.834-.787l-2.261 4.266a1452.76 1452.76 0 0 1-2.32 4.031c-3.328 5.774-6.65 11.536-9.685 17.469-10.089.432-20.266.349-30.354.26-.133-13.254-.117-26.505-.1-39.755.006-4.417.011-8.833.011-13.25L217.303 0c9.261 5.095 18.36 10.433 27.463 15.772 7.228 4.24 14.457 8.481 21.772 12.603.172-4.963.26-9.838.344-14.708 23.661-.26 47.406-.35 71.067 0 .038 8.052.027 16.12.016 24.192v.011c-.014 10.768-.028 21.54.073 32.282 19.134 11.14 38.267 22.368 57.401 33.596l.005.003c4.36 2.606 8.79 5.094 13.217 7.58l.001.001c8.728 4.902 17.441 9.796 25.579 15.57l.693 52.917c-4.794-.046-9.563-.068-14.334-.09h-.02c-4.486-.021-8.973-.042-13.48-.082-.581-1.077-1.186-2.174-1.79-3.27l-.003-.007-.004-.007-.002-.003c-.567-1.03-1.134-2.058-1.68-3.067a1831.688 1831.688 0 0 1-5.166-9.127l-.007-.012a1921.92 1921.92 0 0 0-5.176-9.143ZM63.085 210.714c2.59 3.134 5.054 6.353 7.537 9.596a746.493 746.493 0 0 0 3.332 4.331c1.11-1.862 2.234-3.711 3.355-5.558l.002-.002v-.002l.002-.002.001-.002.001-.002c1.864-3.07 3.724-6.132 5.514-9.229 7.308-13.141 14.35-26.459 20.526-40.209 2-4.354 3.308-9.489.61-13.927-3.405-5.962-4.952-12.678-6.476-19.298v-.003l-.001-.002v-.001l-.001-.002v-.003l-.003-.008c-.188-.816-.375-1.631-.566-2.443-2.87-5.568-6.61-11.141-13.568-10.792-7.991 9.383-14.221 20.065-20.413 30.683l-1.243 2.13-1.274 2.138c-7.396 12.419-14.743 24.754-22.476 36.857 10.094 1.828 18.703 7.916 25.14 15.75Zm281.474-85.99-.625 1.027c-3.03 4.97-6.101 10.008-6.506 16.03-1.656 3.308-2.786 6.875-3.479 10.531-7.01 8.601-1.909 17.955 2.852 26.686 1.504 2.757 2.974 5.453 4.018 8.044l1.274 2.402c6.355 11.989 12.695 23.949 19.95 35.368l.682-.929.074-.101c8.925-12.171 18.65-25.433 34.296-28.735-.391-.74-.76-1.501-1.13-2.263-.37-.762-.74-1.524-1.13-2.263-11.047-18.709-22.355-37.422-33.662-56.047-3.568-5.745-8.87-13.844-16.614-9.75ZM111.184 264.938c30.791 19.5 58.541 43.953 81.067 72.677 4.349 6.442 7.485 13.578 8.698 21.151 3.543 18.735 3.247 37.846 2.951 56.913-.082 5.289-.164 10.574-.164 15.847-11.11-.038-22.22-.027-33.33-.016-14.812.014-29.624.029-44.436-.072-2.172-24.719-8-50.652-25.135-69.542-12.39-14.434-29.89-22.221-46.93-29.803-1.148-.51-2.293-1.02-3.435-1.531-16.005-7.307-23.313-24.802-25.922-41.255-1.302-17.838-1.562-35.771-.432-53.698.13-.13.348-.304.565-.479.217-.174.435-.349.565-.479 5.3 5.761 10.798 11.377 16.302 16.998 15.366 15.692 30.77 31.424 41.974 50.455-8.84-17.867-21.979-32.737-35.108-47.597-6.634-7.509-13.266-15.014-19.34-22.903-7.917-8.703-7.396-26.635 5.48-30.203 11.046-2.437 19.223 7.401 25.484 14.974 14.265 18.797 30.182 37.073 51.146 48.563Zm289.883-20.055-.002.001c-17.726 17.639-35.574 35.398-48.501 56.96 2.87-6.266 6.26-12.276 10.521-17.755 8.495-11.09 17.61-21.672 26.73-32.26v-.001l.002-.002.001-.001.001-.001c4.98-5.781 9.961-11.565 14.844-17.433 5.396-6.266 10.005-15.058 6.526-23.328-2.177-7.573-11.047-12.448-18.526-9.224-7.012 2.674-11.862 8.597-16.547 14.319-.953 1.163-1.899 2.318-2.854 3.436-10.438 13.489-21.657 26.719-35.662 36.729-37.838 23.932-74.63 51.958-99.245 89.906-8.348 25.382-7.289 52.468-6.258 78.862.087 2.208.173 4.41.253 6.607 19.372-.258 38.746-.226 58.154-.193 6.474.01 12.952.021 19.435.021 1.656-19.406 5.396-39.167 15.396-56.141 7.218-12.703 17.922-23.234 30.619-30.375 5.782-3.608 11.981-6.405 18.179-9.201v-.001c5.46-2.463 10.919-4.926 16.092-7.943 10.526-6.438 16.094-18.188 19.313-29.677 3.336-15.673 3.073-31.626 2.811-47.55-.094-5.657-.187-11.31-.119-16.945-3.677 3.74-7.406 7.451-11.141 11.168l-.002.001-.014.014-.002.002-.001.002-.002.001-.001.002Zm-223.081-39.649h35.406v35.422h-35.406v-35.422Zm35.406-43.26h-35.406v35.427h35.406v-35.427Zm-34.797-8.526h35.401v-35.427c-19.568 0-35.401 15.927-35.401 35.427Zm82.807 51.786h-35.401v35.422h35.401v-35.422Zm-35.401-43.26h35.401v35.427h-35.401v-35.427Zm.521-43.953c19.573 0 35.406 15.844 35.406 35.427h-35.406v-35.427Z" fill="#25995C"/></svg>