<svg width="34" height="32" fill="none" xmlns="http://www.w3.org/2000/svg"><g clip-path="url(#a)"><path d="M33.12 0H.98v32h32.14V0Z" fill="#7D3DAF"/><path d="m27.215 10.315-.006-.025c-.514-2.067-2.828-4.284-4.954-4.746l-.024-.004a27.65 27.65 0 0 0-10.362 0l-.025.004c-2.125.462-4.44 2.68-4.954 4.746l-.005.025a20.105 20.105 0 0 0 0 8.699l.005.025c.492 1.978 2.635 4.094 4.681 4.675v2.307c0 .835 1.022 1.245 1.603.643l2.348-2.43a27.435 27.435 0 0 0 6.709-.445l.024-.005c2.126-.461 4.44-2.679 4.954-4.745l.006-.025a20.104 20.104 0 0 0 0-8.699Zm-1.857 8.28c-.343 1.348-2.1 3.024-3.497 3.334a25.77 25.77 0 0 1-5.512.443.131.131 0 0 0-.097.04l-1.714 1.751-1.824 1.863a.214.214 0 0 1-.367-.147v-3.821a.132.132 0 0 0-.107-.129h-.002c-1.396-.31-3.153-1.986-3.496-3.334a18.245 18.245 0 0 1 0-7.862c.343-1.348 2.1-3.024 3.496-3.333a25.751 25.751 0 0 1 9.623 0c1.397.31 3.154 1.985 3.497 3.333a18.226 18.226 0 0 1 0 7.862Z" fill="#fff"/><path d="M20.088 20.359c-.215-.065-.42-.108-.61-.187-1.968-.813-3.78-1.862-5.216-3.47-.816-.915-1.455-1.948-1.995-3.04-.256-.519-.472-1.057-.692-1.592-.2-.488.095-.992.406-1.36a3.206 3.206 0 0 1 1.075-.803c.317-.152.63-.065.862.203.502.58.962 1.189 1.335 1.86.23.413.166.918-.25 1.2-.1.067-.192.148-.286.225a.94.94 0 0 0-.217.227.62.62 0 0 0-.042.547c.513 1.403 1.376 2.493 2.794 3.08.227.094.455.203.716.173.438-.05.58-.529.886-.778.3-.244.683-.248 1.006-.044.323.203.636.422.947.642.305.217.61.43.891.676.271.238.364.55.212.872-.28.59-.686 1.081-1.272 1.395-.166.088-.363.117-.55.174-.215-.065.187-.057 0 0ZM17.056 9.232c2.575.071 4.69 1.773 5.143 4.308.078.432.105.873.14 1.312.014.184-.09.36-.29.362-.207.002-.3-.17-.313-.354-.027-.365-.045-.731-.096-1.093-.266-1.91-1.796-3.49-3.706-3.83-.287-.05-.581-.064-.872-.094-.184-.02-.425-.03-.466-.258-.034-.191.128-.343.31-.353.05-.003.1 0 .15 0 2.575.071-.05 0 0 0Z" fill="#fff"/><path d="M20.97 14.282c-.005.033-.007.108-.026.179-.069.257-.46.29-.55.03a.774.774 0 0 1-.032-.248c0-.543-.12-1.086-.394-1.558a2.907 2.907 0 0 0-1.222-1.141 3.523 3.523 0 0 0-.973-.298c-.147-.024-.295-.039-.443-.059-.179-.025-.274-.138-.265-.313.007-.165.128-.283.308-.273.59.034 1.162.16 1.687.438 1.069.563 1.68 1.452 1.857 2.64.008.053.021.107.025.16.01.134.017.268.027.443-.004.033-.01-.175 0 0Z" fill="#fff"/><path d="M19.367 14.22c-.215.004-.33-.114-.353-.311-.015-.137-.027-.276-.06-.41a1.152 1.152 0 0 0-.427-.667 1.12 1.12 0 0 0-.348-.167c-.158-.045-.322-.033-.48-.071-.171-.042-.266-.18-.24-.34a.31.31 0 0 1 .327-.248c.999.072 1.712.586 1.814 1.756a.77.77 0 0 1-.003.249.256.256 0 0 1-.23.21c-.215.003.098-.007 0 0Z" fill="#fff"/></g><defs><clipPath id="a"><rect x=".979" width="32.142" height="32" rx="7.347" fill="#fff"/></clipPath></defs></svg>