<svg width="33" height="32" fill="none" xmlns="http://www.w3.org/2000/svg"><g clip-path="url(#a)"><path d="M.49 15.36c0-7.24 0-10.861 2.259-13.11C5.009 0 8.645 0 15.918 0h1.285c7.273 0 10.91 0 13.17 2.25 2.259 2.249 2.259 5.87 2.259 13.11v1.28c0 7.24 0 10.861-2.26 13.11C28.112 32 24.476 32 17.203 32h-1.285c-7.273 0-10.91 0-13.17-2.25C.49 27.502.49 23.88.49 16.64v-1.28Z" fill="#07F"/><path d="M17.592 23.053c-7.326 0-11.505-5-11.679-13.32h3.67c.12 6.107 2.826 8.694 4.969 9.227V9.733h3.455V15c2.116-.227 4.339-2.627 5.089-5.267h3.455c-.576 3.254-2.986 5.654-4.7 6.64 1.714.8 4.46 2.894 5.504 6.68h-3.804c-.817-2.533-2.852-4.493-5.544-4.76v4.76h-.415Z" fill="#fff"/></g><defs><clipPath id="a"><path fill="#fff" transform="translate(.49)" d="M0 0h32.142v32H0z"/></clipPath></defs></svg>