<svg width="33" height="32" fill="none" xmlns="http://www.w3.org/2000/svg"><g clip-path="url(#a)" fill="#FF9314"><path d="M16.873 13.26a2.739 2.739 0 0 0 2.739-2.764 2.744 2.744 0 0 0-2.753-2.751 2.75 2.75 0 0 0-2.76 2.785 2.745 2.745 0 0 0 2.774 2.73Z"/><path d="M16.858 0c-8.836 0-16 7.164-16 16s7.164 16 16 16c8.837 0 16-7.164 16-16s-7.163-16-16-16Zm.023 4.866c3.117.008 5.618 2.557 5.602 5.708-.016 3.079-2.558 5.573-5.67 5.563-3.079-.01-5.604-2.564-5.586-5.648.017-3.118 2.544-5.632 5.654-5.623Zm6.312 13.485c-.689.708-1.518 1.22-2.44 1.577-.87.337-1.825.507-2.77.62.144.156.21.232.3.32 1.282 1.29 2.57 2.572 3.848 3.865.435.44.526.986.286 1.498-.261.56-.848.928-1.424.888-.365-.025-.65-.206-.902-.46-.968-.974-1.954-1.93-2.9-2.922-.277-.29-.41-.234-.654.017a192.576 192.576 0 0 1-2.957 2.97c-.447.44-.979.52-1.497.268-.551-.267-.901-.83-.874-1.395.018-.382.206-.675.469-.936 1.27-1.267 2.534-2.537 3.8-3.806.084-.085.162-.174.284-.305-1.726-.18-3.283-.605-4.615-1.647-.166-.13-.337-.255-.487-.4-.584-.56-.643-1.202-.181-1.863.395-.566 1.058-.717 1.747-.392.133.063.26.142.382.226 2.483 1.706 5.895 1.753 8.388.076.247-.189.511-.344.818-.422.594-.153 1.15.066 1.468.586.365.595.36 1.175-.089 1.637Z"/></g><defs><clipPath id="a"><path fill="#fff" transform="translate(.858)" d="M0 0h32v32H0z"/></clipPath></defs></svg>