<svg width="33" height="32" fill="none" xmlns="http://www.w3.org/2000/svg"><g clip-path="url(#a)"><path d="M16.071 32c8.876 0 16.071-7.163 16.071-16S24.947 0 16.072 0C7.194 0 0 7.163 0 16s7.195 16 16.071 16Z" fill="url(#b)"/><path fill-rule="evenodd" clip-rule="evenodd" d="M7.275 15.83c4.685-2.031 7.809-3.371 9.372-4.018 4.463-1.848 5.39-2.17 5.995-2.18.133-.002.43.03.623.186a.673.673 0 0 1 .229.433c.021.125.048.409.026.63-.241 2.53-1.288 8.67-1.82 11.503-.226 1.2-.67 1.601-1.099 1.64-.933.086-1.642-.613-2.546-1.203-1.414-.923-2.213-1.498-3.586-2.399-1.587-1.04-.558-1.613.346-2.548.237-.245 4.349-3.968 4.428-4.306.01-.042.02-.2-.074-.283-.094-.083-.233-.055-.333-.032-.142.032-2.402 1.519-6.779 4.46-.641.44-1.222.653-1.743.642-.574-.013-1.678-.323-2.498-.589-1.007-.326-1.806-.498-1.737-1.051.036-.288.435-.583 1.196-.884Z" fill="#fff"/></g><defs><linearGradient id="b" x1="16.071" y1="0" x2="16.071" y2="31.763" gradientUnits="userSpaceOnUse"><stop stop-color="#2AABEE"/><stop offset="1" stop-color="#229ED9"/></linearGradient><clipPath id="a"><path fill="#fff" d="M0 0h32.142v32H0z"/></clipPath></defs></svg>