<svg width="33" height="32" fill="none" xmlns="http://www.w3.org/2000/svg"><path d="m7.7 29.5.604.3c2.51 1.5 5.323 2.2 8.136 2.2 8.839 0 16.07-7.2 16.07-16 0-4.2-1.707-8.3-4.72-11.3-3.014-3-7.031-4.7-11.35-4.7C7.6 0 .368 7.2.469 16.1c0 3 .904 5.9 2.41 8.4l.402.6L1.674 31l6.027-1.5Z" fill="#00E676"/><path d="m24.274 19.7 1.105.5c.2.1.301.2.301.2v.7c-.1.5-.2 1-.401 1.4-.1.2-.302.4-.503.6-.2.2-.401.3-.602.5l-.201.2c-.201.2-.402.2-.703.4-.402.2-1.005.4-1.507.4h-1.005c-.3-.1-.703-.1-1.004-.2-2.712-.7-5.123-2-7.232-3.8-.2-.3-.502-.5-.803-.8l-.402-.4A16.662 16.662 0 0 1 7.6 14.3l-.1-.3c-.302-.7-.502-1.5-.502-2.3 0-1.1.401-2.2 1.104-3.1.201-.2.302-.4.503-.6.2-.1.401-.3.602-.4l.1-.1c.202 0 .403-.1.603-.1h1.105c.302.1.503.2.704.5.3.6 1.506 3.3 1.607 3.8.1.3 0 .7-.201 1-.201.2-.302.5-.502.7-.302.3-.704.8-.704.8-.1.1-.1.3-.1.5.1.2.1.3.2.4l.101.2c.503.9 1.206 1.7 1.909 2.4.2.2.502.4.703.6.803.8 1.808 1.4 2.913 1.9l.502.2c.1.1.301.2.402.2h.1c.201 0 .402-.1.502-.3 1.407-1.6 1.507-1.7 1.507-1.7.201-.1.402-.2.703-.2.1 0 .201.1.302.1 1.004.5 2.611 1.2 2.611 1.2Z" fill="#fff"/></svg>