<svg width="19" height="18" viewBox="0 0 19 18" fill="none" xmlns="http://www.w3.org/2000/svg">
<path d="M7 5V3C7 2.46957 7.21071 1.96086 7.58579 1.58579C7.96086 1.21071 8.46957 1 9 1H16C16.5304 1 17.0391 1.21071 17.4142 1.58579C17.7893 1.96086 18 2.46957 18 3V15C18 15.5304 17.7893 16.0391 17.4142 16.4142C17.0391 16.7893 16.5304 17 16 17H9C8.46957 17 7.96086 16.7893 7.58579 16.4142C7.21071 16.0391 7 15.5304 7 15V13" stroke="#25995C" stroke-width="2" stroke-linecap="round" stroke-linejoin="round"/>
<path d="M1 9H14L11 6M11 12L14 9" stroke="#25995C" stroke-width="2" stroke-linecap="round" stroke-linejoin="round"/>
</svg>