<svg width="107" height="90" viewBox="0 0 107 90" fill="none" xmlns="http://www.w3.org/2000/svg">
<g clip-path="url(#clip0_34_768)">
<path d="M0.535156 78.3397C0.535156 70.0048 6.02887 59.8333 15.4668 59.8333C21.524 59.8333 24.2004 64.354 24.2004 69.7222C24.2004 78.7635 18.5658 89.5 9.26875 89.5C3.35244 89.5 0.535156 84.273 0.535156 78.3397ZM6.73319 77.4921C6.73319 81.4476 8.14183 84.5556 11.3817 84.5556C15.1851 84.5556 20.2562 79.6111 20.2562 69.581C20.2562 65.0603 18.2841 62.6587 15.7485 62.6587C10.3957 62.8 6.73319 71.1349 6.73319 77.4921Z" fill="#076197"/>
<path d="M26.0317 71.7C27.5812 70.7111 29.1307 69.8635 30.9619 69.8635C32.5114 69.8635 33.4975 70.5699 33.0749 71.9826L32.6523 73.6778C34.4835 71.4175 37.3008 69.8635 39.8364 69.8635C42.2311 69.8635 43.9214 71.4175 42.7945 75.5143L40.6816 84.273C40.3998 85.4032 40.9633 85.827 41.8085 85.827C43.4988 85.827 45.3301 84.8381 46.457 83.9905C46.8796 84.1318 47.1613 84.5556 47.1613 84.8381C47.1613 85.1207 47.0205 85.4032 46.7387 85.6857C44.6258 87.6635 41.6676 89.5 38.7095 89.5C36.4556 89.5 34.2018 88.5111 35.3287 84.1318L37.1599 76.5032C37.5825 74.9492 36.8782 74.2429 35.8922 74.2429C34.7653 74.2429 32.934 75.2318 31.948 76.2207L29.2715 87.0984C29.1307 88.7937 27.4403 89.5 25.8908 89.5C25.0456 89.5 24.3413 89.3588 23.7778 88.9349L27.4403 74.2429C27.5812 73.6778 27.4403 73.254 27.0177 73.254C26.736 73.254 26.5951 73.3953 26.1725 73.6778C25.4682 73.5365 25.1865 72.4064 26.0317 71.7Z" fill="#076197"/>
<path d="M52.0916 83.2842C52.5142 85.4032 54.2046 86.1096 56.1767 86.1096C59.4165 86.1096 63.3608 84.1318 65.3329 82.0127C66.4598 81.8715 66.8824 82.5778 66.4598 83.2842C63.3608 87.2397 58.2896 89.5 53.9228 89.5C49.8378 89.5 46.457 87.381 46.457 82.7191C46.457 77.7746 50.2604 69.8635 57.5853 69.8635C61.6704 69.8635 62.6564 71.8413 62.6564 73.5365C62.6564 76.6445 60.6843 79.1873 52.0916 83.2842ZM51.9507 81.7302C56.1767 79.4699 59.1348 76.7857 59.1348 74.2429C59.1348 73.3953 58.5714 72.6889 57.867 72.6889C53.5003 72.6889 52.0916 79.0461 51.9507 81.7302Z" fill="#076197"/>
<path d="M71.3901 78.481L71.6719 78.3398C73.7848 77.7747 76.743 74.2429 77.8699 70.1461C78.5742 69.8636 79.2785 69.7223 79.9829 69.7223C81.5324 69.7223 82.2367 70.5699 82.2367 71.5588C82.2367 73.8191 78.8559 77.2096 76.0386 78.7636C76.6021 80.8826 77.8699 85.4033 81.1098 85.4033C81.955 85.4033 82.941 84.6969 84.0679 83.8493C84.4905 83.9906 84.7722 84.4144 84.7722 84.6969C84.7722 84.9794 84.6314 85.262 84.3497 85.5445C82.941 87.381 79.842 89.5001 78.0108 89.5001C73.644 89.5001 72.3762 83.4255 71.8127 80.4588L70.9675 80.6001L69.418 87.0985C68.9954 88.7937 67.3051 89.5001 65.7555 89.5001C64.9104 89.5001 64.206 89.3588 63.6426 89.0763L67.3051 74.3842C67.4459 73.6779 67.3051 73.3953 66.8825 73.3953C66.6007 73.3953 66.4599 73.5366 66.0373 73.8191C65.4738 73.5366 65.1921 72.2652 66.0373 71.7001C67.5868 70.7112 69.1363 69.8636 70.9675 69.8636C72.517 69.8636 73.5031 70.4287 73.0805 71.9826L71.3901 78.481Z" fill="#076197"/>
<path d="M101.676 83.0016C101.253 84.9794 101.817 85.827 102.662 85.827C103.507 85.827 104.493 85.4032 105.198 83.9905C106.043 83.9905 106.465 84.4143 106.465 84.9794C106.465 87.6635 102.803 89.5 100.408 89.5C98.2952 89.5 96.1822 88.6524 96.3231 85.6857C94.4918 87.9461 92.0971 89.5 89.5616 89.5C84.9131 89.5 84.0679 85.5445 84.0679 83.1429C84.0679 76.5032 88.9981 69.8635 95.1962 69.8635C97.1683 69.8635 98.5769 70.2873 99.7038 71.135C100.408 70.4286 101.676 70.0048 102.662 70.0048C103.507 70.0048 104.211 70.1461 104.775 70.4286L101.676 83.0016ZM96.3231 83.1429L98.8586 72.9715C98.1543 72.6889 97.45 72.6889 96.7457 72.6889C91.3928 72.6889 89.5616 78.7635 89.5616 82.8603C89.5616 84.6969 90.5476 85.5445 91.9563 85.5445C93.2241 85.5445 95.0553 84.5556 96.3231 83.1429Z" fill="#076197"/>
<path fill-rule="evenodd" clip-rule="evenodd" d="M105.056 48.1079C101.816 49.5206 98.8583 50.227 95.9001 50.5095C85.3353 49.8032 80.2642 40.4794 68.995 36.5238C72.7984 35.8175 75.6157 33.2746 75.3339 27.6238C85.617 22.5381 89.2795 10.1064 88.716 0.358734C88.716 0.358734 88.7161 0.358734 88.5752 0.641274C88.4343 0.782544 88.2935 1.20635 88.2935 1.20635C76.7426 24.9397 36.0328 8.26985 31.5251 32.8508C28.5669 28.8952 24.2002 27.9064 21.6646 30.5905C20.3968 29.7429 18.143 29.4603 15.8892 31.1556C17.2978 31.2968 18.8473 32.1445 20.1151 33.2746C18.8473 32.427 17.2978 32.5683 15.6074 33.2746C17.4387 33.1333 19.2699 33.2746 21.3829 34.4048V34.2635C20.5377 32.7095 19.2699 31.1556 17.4387 31.0143C19.5516 30.873 21.3829 31.4381 22.7915 32.7095C22.6506 31.1556 23.7776 30.4492 25.0453 30.4492C31.5251 30.3079 34.2015 38.6429 34.9058 41.327C34.6241 38.2191 33.7789 35.6762 32.5112 33.6984C37.3005 12.0841 78.9964 28.1889 87.5891 5.30318C87.8709 11.3778 83.7858 21.1254 75.6157 25.7873C75.4748 25.9286 74.3479 26.3524 74.3479 26.3524C74.3479 26.3524 74.4887 27.0587 74.4887 27.6238C74.4887 27.9064 74.4887 28.1889 74.4887 28.3302C74.207 33.6984 68.2907 34.9698 64.6282 34.4048C59.698 33.6984 52.9365 31.0143 43.6394 34.8286C40.8222 35.9587 37.864 37.9365 34.9058 41.1857C58.8528 22.1143 76.6017 63.9302 103.507 48.9556C90.2656 58.5619 58.4302 60.5397 43.7803 43.7286C51.2461 58.2794 90.5473 68.3095 105.056 48.1079ZM58.2893 36.2413C70.6854 35.9587 77.7286 46.2714 86.3214 49.8032C75.8974 47.5429 67.0229 40.0556 58.2893 36.2413Z" fill="#076197"/>
<path fill-rule="evenodd" clip-rule="evenodd" d="M39.4135 59.8334C19.5516 49.8032 25.3271 35.3937 15.3257 33.4159C25.0453 37.7953 16.8752 53.3349 39.4135 59.8334Z" fill="#076197"/>
<path fill-rule="evenodd" clip-rule="evenodd" d="M24.9045 33.9809C24.341 34.6873 24.6227 35.8174 25.4679 36.1C26.3131 36.3825 26.5948 36.2412 27.0174 36.5238L27.8626 37.0888C27.8626 37.0888 27.7218 36.665 27.5809 36.1C27.2992 35.5349 27.5809 34.8285 27.0174 34.1222C26.3131 33.4158 25.4679 33.2746 24.9045 33.9809ZM25.6088 35.3936C25.3271 35.2523 25.3271 34.8285 25.4679 34.546C25.7497 34.2634 26.0314 34.2634 26.1723 34.546C26.454 34.546 27.2992 36.2412 25.6088 35.3936Z" fill="#076197"/>
<path fill-rule="evenodd" clip-rule="evenodd" d="M17.7207 32.7095C18.2841 29.3191 20.1154 26.4937 23.3553 24.0921L22.6509 23.2445C19.5519 26.0699 17.1572 28.4714 16.5938 32.7095C17.0164 32.8508 17.439 32.8508 17.7207 32.7095ZM17.1572 40.7619C18.0024 44.0111 19.1293 44.4349 19.6928 44.0111C18.1433 40.6206 17.439 37.5127 17.5798 34.6873C17.2981 34.4048 17.0164 34.1222 16.5938 33.981C16.4529 35.8175 16.5938 38.0778 17.1572 40.7619Z" fill="#91BF29"/>
<path fill-rule="evenodd" clip-rule="evenodd" d="M18.4248 30.4492C14.9032 33.4159 19.9743 27.0587 18.143 21.1254L19.27 20.8428C20.3969 23.6682 19.8334 26.6349 18.4248 30.4492Z" fill="#91BF29"/>
<path fill-rule="evenodd" clip-rule="evenodd" d="M22.0874 24.092C22.7917 16.0396 30.821 19.2888 33.3566 17.3111C32.6522 21.8317 27.5811 25.2222 22.51 24.7984L22.0874 24.092Z" fill="#91BF29"/>
<path fill-rule="evenodd" clip-rule="evenodd" d="M18.8476 23.3857C16.312 17.4524 10.9591 20.9841 8.56445 19.5714C9.83223 23.527 14.7625 25.3635 18.5658 24.5159L18.8476 23.3857Z" fill="#91BF29"/>
<path fill-rule="evenodd" clip-rule="evenodd" d="M18.1432 21.2666C13.7764 15.3333 19.1292 13.4968 18.9884 10.8127C23.2143 14.2031 21.6648 19.4301 19.2701 21.8317L18.1432 21.2666Z" fill="#91BF29"/>
<path fill-rule="evenodd" clip-rule="evenodd" d="M9.83203 15.0508L9.9729 14.4857C14.4806 15.0508 17.4387 17.4524 18.7065 20.2777C18.8474 20.7016 18.2839 20.9841 18.4248 21.5492C16.1709 17.7349 13.2128 15.7571 9.83203 15.0508Z" fill="#91BF29"/>
<path fill-rule="evenodd" clip-rule="evenodd" d="M10.5366 14.4856C8.42361 8.69357 4.47941 12.5079 1.94385 11.0952C3.21163 14.6269 7.01497 15.7571 10.2548 15.0507L10.5366 14.4856Z" fill="#91BF29"/>
<path fill-rule="evenodd" clip-rule="evenodd" d="M15.1851 16.6047C17.4389 10.2475 11.8043 9.68246 10.5366 7.1396C9.55051 11.0952 11.3817 13.9206 13.7764 15.6158L15.1851 16.6047Z" fill="#91BF29"/>
</g>
<defs>
<clipPath id="clip0_34_768">
<rect width="105.93" height="89" fill="white" transform="translate(0.535156 0.5)"/>
</clipPath>
</defs>
</svg>