<svg width="33" height="32" viewBox="0 0 33 32" fill="none" xmlns="http://www.w3.org/2000/svg">
<path d="M7.70085 29.5L8.30352 29.8C10.8146 31.3 13.6271 32 16.4396 32C25.2787 32 32.5108 24.8 32.5108 16C32.5108 11.8 30.8032 7.7 27.7899 4.7C24.7765 1.7 20.7587 0 16.4396 0C7.6004 0 0.368362 7.2 0.468807 16.1C0.468807 19.1 1.37281 22 2.87949 24.5L3.28127 25.1L1.67415 31L7.70085 29.5Z" fill="#00E676"/>
<path d="M24.2741 19.6999L25.379 20.1999C25.5799 20.2999 25.6803 20.3999 25.6803 20.3999V21.0999C25.5799 21.5999 25.4794 22.0999 25.2786 22.4999C25.1781 22.6999 24.9772 22.8999 24.7763 23.0999C24.5754 23.2999 24.3746 23.3999 24.1737 23.5999L23.9728 23.7999C23.7719 23.9999 23.571 23.9999 23.2697 24.1999C22.8679 24.3999 22.2652 24.5999 21.763 24.5999H20.7585C20.4572 24.4999 20.0554 24.4999 19.7541 24.3999C17.0421 23.6999 14.6314 22.3999 12.522 20.5999C12.3211 20.2999 12.0198 20.0999 11.7185 19.7999L11.3167 19.3999C9.70957 17.8999 8.50423 16.1999 7.60023 14.2999L7.49978 13.9999C7.19845 13.2999 6.99756 12.4999 6.99756 11.6999C6.99756 10.5999 7.39934 9.4999 8.10245 8.5999C8.30334 8.3999 8.40379 8.1999 8.60468 7.9999C8.80557 7.8999 9.00646 7.6999 9.20735 7.5999L9.30779 7.4999C9.50868 7.4999 9.70957 7.3999 9.91046 7.3999H10.714H11.0154C11.3167 7.4999 11.5176 7.5999 11.7185 7.8999C12.0198 8.4999 13.2252 11.1999 13.3256 11.6999C13.426 11.9999 13.3256 12.3999 13.1247 12.6999C12.9238 12.8999 12.8234 13.1999 12.6225 13.3999C12.3211 13.6999 11.9194 14.1999 11.9194 14.1999C11.8189 14.2999 11.8189 14.4999 11.8189 14.6999C11.9194 14.8999 11.9194 14.9999 12.0198 15.0999L12.1203 15.2999C12.6225 16.1999 13.3256 16.9999 14.0287 17.6999C14.2296 17.8999 14.5309 18.0999 14.7318 18.2999C15.5354 19.0999 16.5398 19.6999 17.6447 20.1999L18.147 20.3999C18.2474 20.4999 18.4483 20.5999 18.5487 20.5999H18.6492C18.8501 20.5999 19.051 20.4999 19.1514 20.2999C20.5576 18.6999 20.6581 18.5999 20.6581 18.5999C20.859 18.4999 21.0599 18.3999 21.3612 18.3999C21.4616 18.3999 21.5621 18.4999 21.6625 18.4999C22.667 18.9999 24.2741 19.6999 24.2741 19.6999Z" fill="white"/>
</svg>