<svg width="33" height="32" viewBox="0 0 33 32" fill="none" xmlns="http://www.w3.org/2000/svg">
<g clip-path="url(#clip0_18_186)">
<path d="M16.873 13.2604C18.4008 13.2549 19.6176 12.0276 19.612 10.4965C19.6065 8.96472 18.387 7.74594 16.8586 7.74463C15.3173 7.74299 14.0864 8.98436 14.0982 10.5299C14.1097 12.0554 15.3403 13.266 16.873 13.2604Z" fill="#FF9314"/>
<path d="M16.8582 0C8.02157 0 0.858154 7.16374 0.858154 16C0.858154 24.8363 8.02157 32 16.8582 32C25.6947 32 32.8582 24.8363 32.8582 16C32.8582 7.16374 25.6947 0 16.8582 0ZM16.8811 4.86564C19.9976 4.87415 22.499 7.42334 22.483 10.5742C22.4672 13.6525 19.9249 16.1473 16.8136 16.1368C13.7341 16.1264 11.2085 13.5732 11.2268 10.4888C11.2442 7.37064 13.7711 4.85713 16.8811 4.86564ZM23.1933 18.3511C22.5042 19.0586 21.6747 19.5706 20.7535 19.9277C19.8827 20.2652 18.9284 20.4352 17.9836 20.5484C18.1267 20.7036 18.1938 20.7799 18.2829 20.8689C19.5648 22.1577 20.853 23.44 22.1307 24.7325C22.5661 25.1731 22.6568 25.7192 22.4172 26.2308C22.1556 26.7906 21.5686 27.1586 20.9928 27.119C20.6281 27.0938 20.3436 26.9127 20.0912 26.6584C19.1235 25.6848 18.1375 24.7286 17.1901 23.7366C16.9135 23.4479 16.7812 23.5029 16.5373 23.7537C15.5641 24.7561 14.5748 25.7424 13.5799 26.7235C13.1331 27.1642 12.6014 27.244 12.0829 26.992C11.5319 26.7255 11.1816 26.1627 11.2085 25.5967C11.2275 25.215 11.4154 24.9224 11.6779 24.6611C12.9471 23.3945 14.2124 22.124 15.478 20.8545C15.5621 20.7704 15.64 20.681 15.7621 20.5501C14.0359 20.3697 12.4793 19.9448 11.1466 18.9028C10.981 18.7731 10.8104 18.6481 10.6598 18.5027C10.0761 17.9426 10.0175 17.3006 10.4788 16.64C10.8739 16.0743 11.5365 15.9231 12.2256 16.2481C12.3592 16.3107 12.4862 16.3899 12.608 16.4737C15.0914 18.1803 18.5032 18.2271 20.9964 16.55C21.2432 16.3614 21.5074 16.2062 21.8135 16.128C22.408 15.9748 22.9632 16.1938 23.2821 16.7143C23.6471 17.3091 23.6428 17.8892 23.1933 18.3511Z" fill="#FF9314"/>
</g>
<defs>
<clipPath id="clip0_18_186">
<rect width="32" height="32" fill="white" transform="translate(0.857666)"/>
</clipPath>
</defs>
</svg>