<svg width="34" height="32" viewBox="0 0 34 32" fill="none" xmlns="http://www.w3.org/2000/svg">
<g clip-path="url(#clip0_18_173)">
<path d="M33.1209 0H0.978516V32H33.1209V0Z" fill="#7D3DAF"/>
<path d="M27.2153 10.315L27.209 10.2897C26.6955 8.22326 24.3807 6.00581 22.255 5.54448L22.231 5.53957C18.7927 4.88655 15.3064 4.88655 11.8688 5.53957L11.8441 5.54448C9.71909 6.00581 7.40432 8.22326 6.89016 10.2897L6.88452 10.315C6.24976 13.2009 6.24976 16.1276 6.88452 19.0135L6.89016 19.0388C7.38239 21.017 9.52479 23.1326 11.5712 23.7144V26.0212C11.5712 26.8561 12.5932 27.2661 13.1743 26.6637L15.5219 24.2342C16.031 24.2626 16.5405 24.2784 17.0499 24.2784C18.7807 24.2784 20.5122 24.1155 22.231 23.789L22.255 23.7841C24.3807 23.3228 26.6955 21.1053 27.209 19.0388L27.2153 19.0136C27.8501 16.1276 27.8501 13.2009 27.2153 10.315ZM25.3576 18.595C25.0148 19.9432 23.2572 21.6192 21.8607 21.9289C20.0325 22.275 18.1899 22.4229 16.3491 22.3722C16.3125 22.3712 16.2773 22.3853 16.2517 22.4114C15.9905 22.6784 14.5377 24.1632 14.5377 24.1632L12.7145 26.026C12.5812 26.1644 12.347 26.0703 12.347 25.8793V22.0579C12.347 21.9948 12.3017 21.9412 12.2395 21.929C12.2391 21.929 12.2388 21.9289 12.2384 21.9288C10.8419 21.6192 9.08504 19.9431 8.74156 18.5949C8.17027 15.9864 8.17027 13.342 8.74156 10.7334C9.08504 9.38527 10.8419 7.7092 12.2384 7.39954C15.4313 6.79497 18.6686 6.79497 21.8607 7.39954C23.2579 7.7092 25.0148 9.38527 25.3576 10.7334C25.9295 13.3421 25.9295 15.9864 25.3576 18.595Z" fill="white"/>
<path d="M20.0879 20.359C19.8732 20.2942 19.6686 20.2506 19.4786 20.1721C17.5097 19.3588 15.6977 18.3096 14.2623 16.7013C13.4461 15.7867 12.8072 14.7542 12.2672 13.6615C12.0111 13.1433 11.7953 12.6048 11.5753 12.0698C11.3747 11.5819 11.6702 11.0779 11.9813 10.7103C12.2732 10.3654 12.6488 10.1013 13.0556 9.90678C13.3732 9.7549 13.6864 9.84246 13.9183 10.1104C14.4196 10.6897 14.8801 11.2986 15.253 11.9701C15.4823 12.3831 15.4194 12.888 15.0038 13.1691C14.9028 13.2374 14.8108 13.3176 14.7167 13.3947C14.6342 13.4623 14.5565 13.5307 14.4999 13.6222C14.3965 13.7898 14.3916 13.9874 14.4582 14.1695C14.9707 15.5716 15.8344 16.6619 17.2519 17.2491C17.4788 17.343 17.7066 17.4524 17.9679 17.4221C18.4055 17.3712 18.5472 16.8933 18.8539 16.6436C19.1536 16.3996 19.5367 16.3964 19.8595 16.5998C20.1825 16.8033 20.4956 17.0217 20.8067 17.2425C21.1122 17.4592 21.4163 17.6711 21.6981 17.9182C21.969 18.1557 22.0623 18.4673 21.9098 18.7897C21.6305 19.3801 21.2241 19.8713 20.6378 20.1848C20.4723 20.2732 20.2746 20.3018 20.0879 20.359C19.8732 20.2941 20.2746 20.3018 20.0879 20.359Z" fill="white"/>
<path d="M17.0556 9.23154C19.631 9.30337 21.7462 11.0049 22.1995 13.5398C22.2768 13.9717 22.3043 14.4133 22.3386 14.8516C22.3531 15.036 22.2482 15.2112 22.0483 15.2136C21.8419 15.216 21.749 15.0441 21.7356 14.8598C21.7091 14.4949 21.6907 14.1285 21.6402 13.7666C21.3736 11.8567 19.8438 10.2765 17.9342 9.93743C17.6469 9.88638 17.3528 9.87297 17.0617 9.84256C16.8777 9.82332 16.6367 9.81223 16.5959 9.58452C16.5617 9.3936 16.7236 9.24158 16.9062 9.23182C16.9558 9.22908 17.0058 9.23132 17.0556 9.23154C19.631 9.30337 17.0058 9.23132 17.0556 9.23154Z" fill="white"/>
<path d="M20.9691 14.2824C20.9648 14.3145 20.9626 14.3897 20.9437 14.4607C20.8754 14.7181 20.4834 14.7503 20.3931 14.4905C20.3664 14.4134 20.3624 14.3257 20.3622 14.2427C20.3613 13.6996 20.2427 13.1572 19.9677 12.6847C19.6849 12.199 19.2529 11.7908 18.7463 11.5438C18.4399 11.3944 18.1085 11.3016 17.7727 11.2463C17.626 11.2221 17.4776 11.2074 17.3302 11.187C17.1514 11.1623 17.056 11.0489 17.0645 10.8736C17.0724 10.7093 17.193 10.5911 17.3728 10.6012C17.9639 10.6346 18.5347 10.7618 19.0602 11.0388C20.1287 11.6021 20.7391 12.4914 20.9172 13.6787C20.9253 13.7325 20.9382 13.7858 20.9423 13.8398C20.9524 13.9731 20.9588 14.1066 20.9691 14.2824C20.9648 14.3145 20.9588 14.1066 20.9691 14.2824Z" fill="white"/>
<path d="M19.3673 14.2205C19.1519 14.2244 19.0365 14.1057 19.0143 13.909C18.9989 13.7718 18.9867 13.6329 18.9538 13.4995C18.8891 13.2367 18.7488 12.9932 18.5268 12.8322C18.422 12.7562 18.3032 12.7008 18.1788 12.665C18.0207 12.6196 17.8566 12.6321 17.6989 12.5936C17.5276 12.5518 17.4329 12.4138 17.4599 12.2538C17.4843 12.1083 17.6266 11.9947 17.7863 12.0062C18.7848 12.0779 19.4984 12.5919 19.6003 13.7621C19.6075 13.8447 19.6159 13.9319 19.5975 14.0109C19.566 14.1462 19.4654 14.2139 19.3673 14.2205C19.1519 14.2244 19.4654 14.2139 19.3673 14.2205Z" fill="white"/>
</g>
<defs>
<clipPath id="clip0_18_173">
<rect x="0.978516" width="32.1424" height="32" rx="7.34684" fill="white"/>
</clipPath>
</defs>
</svg>