<svg width="33" height="32" viewBox="0 0 33 32" fill="none" xmlns="http://www.w3.org/2000/svg">
<g clip-path="url(#clip0_18_172)">
<path d="M0.489258 15.36C0.489258 8.1192 0.489258 4.49884 2.74869 2.24942C5.00812 0 8.64459 0 15.9176 0H17.2033C24.4763 0 28.1128 0 30.3723 2.24942C32.6317 4.49884 32.6317 8.1192 32.6317 15.36V16.64C32.6317 23.8808 32.6317 27.5011 30.3723 29.7506C28.1128 32 24.4763 32 17.2033 32H15.9176C8.64459 32 5.00812 32 2.74869 29.7506C0.489258 27.5011 0.489258 23.8808 0.489258 16.64V15.36Z" fill="#0077FF"/>
<path d="M17.5917 23.0534C10.2659 23.0534 6.08743 18.0534 5.91333 9.7334H9.58292C9.70346 15.8401 12.4087 18.4267 14.5515 18.9601V9.7334H18.007V15.0001C20.123 14.7734 22.3459 12.3734 23.0959 9.7334H26.5513C25.9754 12.9867 23.5647 15.3867 21.8505 16.3734C23.5647 17.1734 26.3104 19.2667 27.355 23.0534H23.5513C22.7344 20.5201 20.6989 18.5601 18.007 18.2934V23.0534H17.5917Z" fill="white"/>
</g>
<defs>
<clipPath id="clip0_18_172">
<rect width="32.1424" height="32" fill="white" transform="translate(0.489258)"/>
</clipPath>
</defs>
</svg>