<svg width="33" height="32" viewBox="0 0 33 32" fill="none" xmlns="http://www.w3.org/2000/svg">
<g clip-path="url(#clip0_18_171)">
<path d="M16.0712 32C24.9471 32 32.1424 24.8366 32.1424 16C32.1424 7.16344 24.9471 0 16.0712 0C7.19532 0 0 7.16344 0 16C0 24.8366 7.19532 32 16.0712 32Z" fill="url(#paint0_linear_18_171)"/>
<path fill-rule="evenodd" clip-rule="evenodd" d="M7.27478 15.8309C11.9599 13.7988 15.084 12.459 16.6471 11.8117C21.1103 9.96359 22.0377 9.64255 22.6422 9.63195C22.7751 9.62962 23.0724 9.66242 23.2649 9.81797C23.4275 9.94931 23.4722 10.1267 23.4936 10.2513C23.5151 10.3758 23.5417 10.6595 23.5205 10.8811C23.2787 13.4111 22.2321 19.5507 21.6997 22.3843C21.4744 23.5833 21.0309 23.9853 20.6014 24.0247C19.6681 24.1102 18.9594 23.4106 18.0555 22.8207C16.641 21.8976 15.8419 21.323 14.4689 20.4222C12.8822 19.3812 13.9108 18.8091 14.8151 17.874C15.0518 17.6293 19.1638 13.9056 19.2434 13.5678C19.2534 13.5256 19.2626 13.3681 19.1686 13.285C19.0747 13.2018 18.936 13.2302 18.8359 13.2529C18.694 13.2849 16.4344 14.7718 12.057 17.7136C11.4156 18.1521 10.8346 18.3657 10.3141 18.3545C9.74028 18.3422 8.63647 18.0315 7.8159 17.766C6.80944 17.4403 6.00952 17.2681 6.07918 16.7149C6.11546 16.4268 6.51399 16.1321 7.27478 15.8309Z" fill="white"/>
</g>
<defs>
<linearGradient id="paint0_linear_18_171" x1="16.0712" y1="0" x2="16.0712" y2="31.7627" gradientUnits="userSpaceOnUse">
<stop stop-color="#2AABEE"/>
<stop offset="1" stop-color="#229ED9"/>
</linearGradient>
<clipPath id="clip0_18_171">
<rect width="32.1424" height="32" fill="white"/>
</clipPath>
</defs>
</svg>